<?xml version="1.0" encoding="utf-8"?>
<!-- Generator: Adobe Illustrator 16.0.0, SVG Export Plug-In . SVG Version: 6.00 Build 0)  -->
<!DOCTYPE svg PUBLIC "-//W3C//DTD SVG 1.1//EN" "http://www.w3.org/Graphics/SVG/1.1/DTD/svg11.dtd">
<svg version="1.1" id="Capa_1" xmlns="http://www.w3.org/2000/svg" xmlns:xlink="http://www.w3.org/1999/xlink" x="0px" y="0px"
	 width="2808.045px" height="288.145px" viewBox="0 0 2808.045 288.145" enable-background="new 0 0 2808.045 288.145"
	 xml:space="preserve">
<path fill="#FFFFFF" d="M182.313,199.125c0,0-18.687,6.541-27.844,3.737l3.177-3.737c0,0-9.717-1.495-23.359-13.082l16.819-5.045
	c0,0-16.632-14.576-19.996-22.052l6.167-2.989c0,0-5.045-7.85-2.429-31.769c0,0,12.333,21.49,21.864,24.667l3.924-2.617
	c0,0,8.222,13.082,15.324,30.088l0.187-8.035c0,0-10.278-16.26-12.708-20.184l1.869-0.561c0,0-2.803-17.379-6.914-21.49
	c0,0,7.102,1.121,16.07,5.606c0,0,0.935-14.203-1.682-17.753c0,0,5.046-0.374,6.167,1.12c0,0,1.869-10.65,1.495-19.995
	c0,0,14.015,9.718,14.202,19.622c0,0,2.617-1.683,5.42-1.121c0,0,0.373,14.576,0,19.622c0,0,5.296-10.029,14.265-10.527
	c0,0-2.242,13.704-7.725,24.169l2.243,0.996c0,0-9.718,5.98-12.458,26.413c0,0,17.69-14.203,17.939-19.935
	c0,0,3.239,2.243,4.236,4.485c0,0,5.232-7.213,8.721-9.463c0,0-0.498,2.748,3.738,0c1.494-0.753,13.205-7.479,9.219-12.463
	c0,0,4.235,0.497-3.488,22.922l2.74,1.496c0,0-2.242,4.235-8.471,11.212l4.982,3.738c0,0-6.229,5.979-19.934,12.209
	c0,0,3.987,5.979,13.206,9.717C229.282,198.128,209.598,209.838,182.313,199.125z"/>
<g>
	<path fill="#FFFFFF" d="M286.28,131.86c-0.147,1.859-0.257,3.68-0.33,5.465c-0.073,1.786-0.16,3.583-0.257,5.392
		c0.537,0,1.54-0.012,3.007-0.037c1.467-0.023,3.056-0.085,4.768-0.183c-0.049,0.146-0.074,0.415-0.074,0.807v0.733v0.807
		c0,0.343,0.025,0.587,0.074,0.733c-0.636-0.048-1.296-0.085-1.981-0.109s-1.419-0.037-2.2-0.037h-3.594
		c-0.049,0.195-0.11,0.979-0.183,2.347c-0.074,1.371-0.136,2.997-0.183,4.879c-0.05,1.883-0.086,3.851-0.111,5.904
		s-0.036,3.888-0.036,5.502c0,1.369,0.036,2.714,0.11,4.034c0.073,1.32,0.305,2.507,0.696,3.558
		c0.391,1.052,0.978,1.896,1.761,2.531c0.781,0.636,1.907,0.953,3.374,0.953c0.391,0,0.917-0.049,1.577-0.146
		s1.234-0.221,1.724-0.367v1.761c-0.832,0.146-1.749,0.329-2.75,0.55c-1.003,0.22-1.969,0.33-2.897,0.33
		c-3.081,0-5.354-0.758-6.822-2.273c-1.467-1.515-2.2-3.741-2.2-6.675c0-1.32,0.024-2.751,0.074-4.292
		c0.047-1.54,0.11-3.228,0.183-5.062c0.073-1.833,0.134-3.861,0.183-6.088c0.048-2.225,0.074-4.706,0.074-7.445h-2.347
		c-0.393,0-0.807,0.013-1.247,0.037c-0.441,0.024-0.906,0.062-1.394,0.109c0.048-0.294,0.085-0.574,0.11-0.843
		c0.024-0.269,0.037-0.551,0.037-0.844c0-0.244-0.013-0.488-0.037-0.733c-0.025-0.245-0.062-0.488-0.11-0.734
		c2.2,0.147,3.814,0.221,4.841,0.221c-0.05-0.978-0.086-2.201-0.11-3.667c-0.026-1.468-0.086-2.982-0.183-4.549l6.088-2.567H286.28z
		"/>
	<path fill="#FFFFFF" d="M298.567,150.749c1.05-2.322,2.432-4.206,4.144-5.648c1.711-1.441,3.631-2.494,5.759-3.154
		c2.127-0.66,4.241-0.99,6.345-0.99c2.15,0,4.278,0.33,6.381,0.99c2.102,0.66,4.009,1.713,5.722,3.154
		c1.711,1.442,3.092,3.326,4.145,5.648c1.05,2.323,1.576,5.147,1.576,8.472c0,3.326-0.526,6.15-1.576,8.472
		c-1.053,2.324-2.434,4.208-4.145,5.648c-1.713,1.443-3.62,2.457-5.722,3.045c-2.103,0.587-4.231,0.88-6.381,0.88
		c-2.104,0-4.218-0.293-6.345-0.88c-2.127-0.588-4.047-1.602-5.759-3.045c-1.712-1.44-3.093-3.324-4.144-5.648
		c-1.053-2.321-1.577-5.146-1.577-8.472C296.99,155.896,297.515,153.072,298.567,150.749z M303.995,165.163
		c0.367,1.906,0.99,3.606,1.87,5.098c0.881,1.492,2.054,2.677,3.521,3.558c1.467,0.88,3.275,1.32,5.428,1.32
		c2.15,0,3.96-0.44,5.428-1.32c1.467-0.881,2.64-2.065,3.521-3.558c0.88-1.491,1.503-3.191,1.87-5.098
		c0.367-1.908,0.55-3.889,0.55-5.942c0-2.053-0.183-4.034-0.55-5.941c-0.367-1.907-0.99-3.605-1.87-5.099
		c-0.881-1.49-2.054-2.676-3.521-3.558c-1.467-0.88-3.277-1.319-5.428-1.319c-2.153,0-3.961,0.439-5.428,1.319
		c-1.467,0.882-2.641,2.067-3.521,3.558c-0.88,1.493-1.503,3.191-1.87,5.099c-0.367,1.907-0.55,3.889-0.55,5.941
		C303.445,161.274,303.628,163.255,303.995,165.163z"/>
	<path fill="#FFFFFF" d="M356.148,146.897c-0.709-0.243-1.43-0.366-2.164-0.366c-1.173,0-2.226,0.27-3.154,0.807
		c-0.929,0.539-1.712,1.26-2.347,2.164c-0.636,0.906-1.125,1.98-1.467,3.228c-0.342,1.247-0.513,2.58-0.513,3.997v8.068
		c0,3.277,0.011,5.785,0.037,7.52c0.024,1.736,0.11,3.143,0.256,4.218c-0.979-0.099-1.956-0.146-2.934-0.146
		c-1.077,0-2.104,0.048-3.081,0.146c0.147-1.662,0.231-3.924,0.257-6.785c0.024-2.86,0.036-6.369,0.036-10.526v-2.347
		c0-1.907-0.012-4.108-0.036-6.603c-0.025-2.494-0.11-5.354-0.257-8.581c0.537,0.098,1.051,0.183,1.54,0.256
		c0.488,0.073,1.002,0.11,1.541,0.11c0.44,0,0.904-0.037,1.394-0.11c0.488-0.073,1.002-0.158,1.54-0.256
		c-0.196,1.76-0.306,3.153-0.33,4.181c-0.025,1.026-0.036,2.006-0.036,2.935l0.146,0.072c2.885-5.281,6.113-7.922,9.683-7.922
		c0.44,0,0.818,0.026,1.137,0.073c0.317,0.05,0.721,0.173,1.21,0.367c-0.245,0.587-0.392,1.479-0.44,2.678
		c-0.049,1.198-0.073,2.286-0.073,3.264l-0.514,0.367C357.334,147.411,356.857,147.144,356.148,146.897z"/>
	<path fill="#FFFFFF" d="M363.777,150.749c1.05-2.322,2.432-4.206,4.144-5.648c1.711-1.441,3.631-2.494,5.759-3.154
		c2.126-0.66,4.241-0.99,6.345-0.99c2.151,0,4.278,0.33,6.381,0.99c2.102,0.66,4.009,1.713,5.722,3.154
		c1.711,1.442,3.092,3.326,4.145,5.648c1.051,2.323,1.577,5.147,1.577,8.472c0,3.326-0.526,6.15-1.577,8.472
		c-1.052,2.324-2.434,4.208-4.145,5.648c-1.713,1.443-3.62,2.457-5.722,3.045c-2.103,0.587-4.23,0.88-6.381,0.88
		c-2.104,0-4.218-0.293-6.345-0.88c-2.128-0.588-4.047-1.602-5.759-3.045c-1.712-1.44-3.094-3.324-4.144-5.648
		c-1.053-2.321-1.577-5.146-1.577-8.472C362.2,155.896,362.724,153.072,363.777,150.749z M369.205,165.163
		c0.367,1.906,0.991,3.606,1.871,5.098c0.88,1.492,2.054,2.677,3.521,3.558c1.467,0.88,3.275,1.32,5.428,1.32
		c2.151,0,3.96-0.44,5.428-1.32c1.467-0.881,2.641-2.065,3.521-3.558c0.88-1.491,1.504-3.191,1.87-5.098
		c0.367-1.908,0.55-3.889,0.55-5.942c0-2.053-0.183-4.034-0.55-5.941c-0.366-1.907-0.99-3.605-1.87-5.099
		c-0.88-1.49-2.054-2.676-3.521-3.558c-1.467-0.88-3.277-1.319-5.428-1.319c-2.153,0-3.961,0.439-5.428,1.319
		c-1.467,0.882-2.641,2.067-3.521,3.558c-0.88,1.493-1.504,3.191-1.871,5.099c-0.367,1.907-0.55,3.889-0.55,5.941
		C368.654,161.274,368.837,163.255,369.205,165.163z"/>
	<path fill="#FFFFFF" d="M427.776,147.595c-1.419-1.883-3.374-2.824-5.868-2.824c-3.423,0-5.93,1.053-7.519,3.154
		c-1.589,2.104-2.384,5.062-2.384,8.876v6.234c0,2.2,0.036,4.511,0.109,6.932c0.074,2.422,0.232,4.61,0.477,6.565
		c-1.125-0.099-2.226-0.146-3.301-0.146c-1.076,0-2.177,0.048-3.301,0.146c0.244-1.955,0.404-4.144,0.477-6.565
		c0.073-2.421,0.11-4.731,0.11-6.932v-7.629c0-2.2-0.037-4.51-0.11-6.932c-0.073-2.42-0.233-4.683-0.477-6.784
		c1.368,0.244,2.469,0.366,3.301,0.366c0.391,0,0.818-0.037,1.284-0.11c0.464-0.073,1.014-0.158,1.651-0.256
		c-0.147,1.956-0.22,3.912-0.22,5.867h0.146c1.373-2.103,3.017-3.729,4.93-4.878c1.913-1.148,4.193-1.724,6.843-1.724
		c1.373,0,2.759,0.196,4.157,0.587c1.398,0.392,2.661,1.063,3.789,2.018c1.128,0.953,2.048,2.25,2.761,3.888
		c0.71,1.639,1.066,3.729,1.066,6.271c0,2.104-0.049,4.267-0.146,6.491c-0.099,2.227-0.147,4.584-0.147,7.078v4.769
		c0,0.783,0.011,1.554,0.037,2.311c0.024,0.759,0.061,1.48,0.11,2.164c-0.991-0.099-2.029-0.146-3.118-0.146
		c-1.041,0-2.055,0.048-3.043,0.146c0.097-2.542,0.207-5.158,0.33-7.849c0.121-2.688,0.183-5.452,0.183-8.289v-4.475
		C429.904,152.252,429.194,149.478,427.776,147.595z"/>
	<path fill="#FFFFFF" d="M453.45,131.86c-0.147,1.859-0.257,3.68-0.33,5.465c-0.074,1.786-0.16,3.583-0.257,5.392
		c0.538,0,1.54-0.012,3.007-0.037c1.467-0.023,3.056-0.085,4.768-0.183c-0.049,0.146-0.074,0.415-0.074,0.807v0.733v0.807
		c0,0.343,0.025,0.587,0.074,0.733c-0.636-0.048-1.296-0.085-1.981-0.109s-1.419-0.037-2.2-0.037h-3.594
		c-0.049,0.195-0.11,0.979-0.183,2.347c-0.073,1.371-0.136,2.997-0.183,4.879c-0.05,1.883-0.086,3.851-0.111,5.904
		c-0.025,2.054-0.036,3.888-0.036,5.502c0,1.369,0.036,2.714,0.11,4.034c0.073,1.32,0.305,2.507,0.697,3.558
		c0.391,1.052,0.978,1.896,1.761,2.531c0.781,0.636,1.907,0.953,3.374,0.953c0.391,0,0.917-0.049,1.577-0.146
		s1.234-0.221,1.724-0.367v1.761c-0.832,0.146-1.749,0.329-2.75,0.55c-1.003,0.22-1.969,0.33-2.897,0.33
		c-3.081,0-5.354-0.758-6.822-2.273c-1.467-1.515-2.201-3.741-2.201-6.675c0-1.32,0.024-2.751,0.074-4.292
		c0.047-1.54,0.11-3.228,0.183-5.062c0.073-1.833,0.134-3.861,0.183-6.088c0.048-2.225,0.074-4.706,0.074-7.445h-2.347
		c-0.393,0-0.807,0.013-1.247,0.037c-0.44,0.024-0.906,0.062-1.394,0.109c0.048-0.294,0.085-0.574,0.11-0.843
		c0.024-0.269,0.037-0.551,0.037-0.844c0-0.244-0.013-0.488-0.037-0.733c-0.025-0.245-0.062-0.488-0.11-0.734
		c2.2,0.147,3.814,0.221,4.841,0.221c-0.05-0.978-0.086-2.201-0.11-3.667c-0.026-1.468-0.086-2.982-0.183-4.549l6.088-2.567H453.45z
		"/>
	<path fill="#FFFFFF" d="M465.737,150.749c1.05-2.322,2.432-4.206,4.144-5.648c1.711-1.441,3.631-2.494,5.759-3.154
		c2.127-0.66,4.241-0.99,6.345-0.99c2.151,0,4.278,0.33,6.381,0.99c2.102,0.66,4.009,1.713,5.722,3.154
		c1.711,1.442,3.092,3.326,4.145,5.648c1.051,2.323,1.577,5.147,1.577,8.472c0,3.326-0.526,6.15-1.577,8.472
		c-1.053,2.324-2.434,4.208-4.145,5.648c-1.713,1.443-3.62,2.457-5.722,3.045c-2.103,0.587-4.23,0.88-6.381,0.88
		c-2.104,0-4.218-0.293-6.345-0.88c-2.127-0.588-4.047-1.602-5.759-3.045c-1.712-1.44-3.093-3.324-4.144-5.648
		c-1.053-2.321-1.577-5.146-1.577-8.472C464.16,155.896,464.684,153.072,465.737,150.749z M471.165,165.163
		c0.367,1.906,0.99,3.606,1.87,5.098c0.881,1.492,2.054,2.677,3.521,3.558c1.467,0.88,3.275,1.32,5.428,1.32
		c2.151,0,3.96-0.44,5.428-1.32c1.467-0.881,2.641-2.065,3.521-3.558c0.88-1.491,1.503-3.191,1.87-5.098
		c0.367-1.908,0.55-3.889,0.55-5.942c0-2.053-0.183-4.034-0.55-5.941c-0.367-1.907-0.99-3.605-1.87-5.099
		c-0.88-1.49-2.054-2.676-3.521-3.558c-1.467-0.88-3.277-1.319-5.428-1.319c-2.153,0-3.961,0.439-5.428,1.319
		c-1.467,0.882-2.641,2.067-3.521,3.558c-0.88,1.493-1.503,3.191-1.87,5.099c-0.367,1.907-0.55,3.889-0.55,5.941
		C470.614,161.274,470.797,163.255,471.165,165.163z"/>
	<path fill="#FFFFFF" d="M506.96,141.249c1.344-3.178,3.239-5.966,5.685-8.361c2.445-2.396,5.403-4.279,8.876-5.648
		c3.471-1.368,7.335-2.054,11.59-2.054c3.912,0,7.555,0.538,10.929,1.614c3.374,1.076,6.309,2.689,8.802,4.841
		c2.494,2.151,4.463,4.877,5.905,8.179c1.442,3.301,2.164,7.152,2.164,11.553c0,3.668-0.696,7.091-2.091,10.271
		c-1.394,3.179-3.326,5.953-5.795,8.324c-2.47,2.373-5.416,4.219-8.838,5.539c-3.423,1.32-7.189,1.98-11.296,1.98
		c-3.864,0-7.495-0.478-10.893-1.431c-3.399-0.953-6.357-2.493-8.875-4.621c-2.519-2.128-4.511-4.841-5.979-8.143
		c-1.467-3.301-2.2-7.249-2.2-11.847C504.943,147.828,505.615,144.429,506.96,141.249z M547.708,141.286
		c-0.783-2.518-1.871-4.657-3.264-6.418c-1.394-1.761-3.081-3.117-5.062-4.071c-1.981-0.954-4.145-1.431-6.492-1.431
		c-2.494,0-4.731,0.6-6.711,1.797c-1.981,1.199-3.656,2.825-5.025,4.879c-1.369,2.053-2.409,4.463-3.117,7.226
		c-0.71,2.762-1.063,5.71-1.063,8.838c0,3.913,0.415,7.215,1.247,9.903c0.831,2.689,1.956,4.854,3.375,6.491
		c1.418,1.639,3.055,2.824,4.915,3.558c1.857,0.733,3.813,1.101,5.868,1.101c2.2,0,4.303-0.464,6.309-1.395
		c2.004-0.928,3.752-2.347,5.245-4.254c1.491-1.907,2.689-4.327,3.594-7.262c0.904-2.934,1.357-6.405,1.357-10.416
		C548.881,146.654,548.489,143.806,547.708,141.286z"/>
	<path fill="#FFFFFF" d="M577.782,146.751c1.368-2.054,2.97-3.643,4.804-4.768c1.834-1.124,3.925-1.687,6.271-1.687
		c3.668,0,6.492,1.062,8.473,3.189c1.98,2.128,2.971,5.563,2.971,10.306c0,2.494-0.05,4.696-0.146,6.603
		c-0.099,1.908-0.147,3.814-0.147,5.722c0,1.565,0.037,3.264,0.111,5.098c0.072,1.834,0.158,3.607,0.256,5.318
		c-0.636-0.099-1.443-0.146-2.42-0.146c-0.979,0-2.006,0-3.081,0c-1.076,0-2.104,0-3.081,0c-0.979,0-1.786,0.048-2.421,0.146
		c0.342-2.542,0.562-5.538,0.661-8.986c0.097-3.446,0.146-7.395,0.146-11.846c0-3.081-0.525-5.343-1.577-6.785
		c-1.052-1.441-2.53-2.164-4.438-2.164c-2.2,0-3.814,0.954-4.841,2.86c-1.027,1.908-1.54,4.549-1.54,7.923v2.935
		c0,2.982,0.036,5.794,0.109,8.435s0.231,5.184,0.477,7.629c-0.636-0.099-1.431-0.146-2.384-0.146s-1.993,0-3.117,0
		c-1.126,0-2.152,0-3.081,0s-1.736,0.048-2.421,0.146c0.244-2.445,0.403-4.988,0.477-7.629c0.074-2.641,0.111-5.452,0.111-8.435
		v-2.935c0-2.982-0.037-5.782-0.111-8.399c-0.073-2.615-0.232-5.244-0.477-7.886c0.881,0.1,1.748,0.185,2.604,0.257
		c0.854,0.074,1.724,0.11,2.604,0.11c0.881,0,1.748-0.036,2.604-0.11c0.855-0.072,1.772-0.157,2.75-0.257l-0.293,5.502H577.782z"/>
	<path fill="#FFFFFF" d="M609.396,133.4c-0.099-4.009-0.245-8.068-0.44-12.176c0.635,0.099,1.442,0.184,2.421,0.257
		c0.978,0.073,2.004,0.109,3.081,0.109c1.074,0,2.102-0.036,3.08-0.109s1.785-0.158,2.421-0.257
		c-0.196,4.107-0.343,8.167-0.44,12.176c-0.098,4.011-0.146,8.412-0.146,13.204v4.768c0,4.794,0.049,9.194,0.146,13.203
		c0.098,4.011,0.244,7.996,0.44,11.957c-0.636-0.099-1.442-0.146-2.421-0.146s-2.006,0-3.08,0c-1.077,0-2.104,0-3.081,0
		c-0.979,0-1.786,0.048-2.421,0.146c0.195-3.961,0.342-7.946,0.44-11.957c0.098-4.009,0.146-8.409,0.146-13.203v-4.768
		C609.543,141.812,609.494,137.411,609.396,133.4z"/>
	<path fill="#FFFFFF" d="M630.742,123.278c1.125-1.124,2.494-1.688,4.106-1.688c1.614,0,2.982,0.563,4.109,1.688
		c1.125,1.125,1.687,2.493,1.687,4.107s-0.562,2.983-1.687,4.108c-1.127,1.125-2.495,1.687-4.109,1.687
		c-1.612,0-2.981-0.562-4.106-1.687s-1.687-2.494-1.687-4.108S629.617,124.403,630.742,123.278z M629.825,149.135
		c-0.073-2.615-0.232-5.244-0.477-7.886c0.685,0.1,1.491,0.185,2.42,0.257c0.93,0.074,1.956,0.11,3.08,0.11
		c2.3,0,4.134-0.121,5.502-0.367c-0.244,2.642-0.403,5.271-0.476,7.886c-0.073,2.617-0.109,5.417-0.109,8.399v2.935
		c0,2.982,0.036,5.794,0.109,8.435c0.072,2.641,0.231,5.184,0.476,7.629c-0.635-0.099-1.431-0.146-2.383-0.146
		c-0.953,0-1.994,0-3.119,0c-1.124,0-2.15,0-3.08,0c-0.929,0-1.735,0.048-2.42,0.146c0.244-2.445,0.403-4.988,0.477-7.629
		s0.109-5.452,0.109-8.435v-2.935C629.935,154.552,629.898,151.752,629.825,149.135z"/>
	<path fill="#FFFFFF" d="M659.351,146.751c1.367-2.054,2.97-3.643,4.804-4.768c1.834-1.124,3.925-1.687,6.271-1.687
		c3.668,0,6.492,1.062,8.473,3.189c1.979,2.128,2.971,5.563,2.971,10.306c0,2.494-0.049,4.696-0.146,6.603
		c-0.1,1.908-0.147,3.814-0.147,5.722c0,1.565,0.037,3.264,0.11,5.098c0.074,1.834,0.158,3.607,0.257,5.318
		c-0.636-0.099-1.442-0.146-2.42-0.146c-0.979,0-2.006,0-3.082,0c-1.075,0-2.103,0-3.08,0c-0.979,0-1.786,0.048-2.421,0.146
		c0.341-2.542,0.562-5.538,0.66-8.986c0.098-3.446,0.146-7.395,0.146-11.846c0-3.081-0.525-5.343-1.577-6.785
		c-1.052-1.441-2.529-2.164-4.438-2.164c-2.2,0-3.814,0.954-4.841,2.86c-1.027,1.908-1.54,4.549-1.54,7.923v2.935
		c0,2.982,0.036,5.794,0.109,8.435c0.072,2.641,0.231,5.184,0.477,7.629c-0.636-0.099-1.431-0.146-2.383-0.146
		c-0.954,0-1.994,0-3.119,0c-1.124,0-2.152,0-3.08,0c-0.93,0-1.737,0.048-2.421,0.146c0.244-2.445,0.403-4.988,0.478-7.629
		c0.072-2.641,0.109-5.452,0.109-8.435v-2.935c0-2.982-0.037-5.782-0.109-8.399c-0.074-2.615-0.233-5.244-0.478-7.886
		c0.881,0.1,1.748,0.185,2.604,0.257c0.856,0.074,1.724,0.11,2.605,0.11c0.88,0,1.748-0.036,2.604-0.11
		c0.854-0.072,1.771-0.157,2.751-0.257l-0.294,5.502H659.351z"/>
	<path fill="#FFFFFF" d="M699.694,164.503c0.392,1.712,0.99,3.189,1.797,4.438c0.807,1.246,1.833,2.226,3.081,2.934
		c1.246,0.71,2.702,1.063,4.364,1.063c3.375,0,6.382-1.1,9.022-3.3l0.88,0.659l-1.614,4.108c-1.222,0.93-2.689,1.676-4.4,2.237
		c-1.712,0.561-3.961,0.844-6.749,0.844c-2.396,0-4.67-0.331-6.82-0.991c-2.152-0.66-4.048-1.748-5.686-3.264
		c-1.64-1.516-2.935-3.435-3.888-5.758c-0.953-2.322-1.43-5.099-1.43-8.325c0-3.179,0.427-5.942,1.283-8.289
		c0.854-2.348,2.04-4.303,3.558-5.868c1.516-1.565,3.312-2.739,5.391-3.521c2.078-0.782,4.34-1.174,6.786-1.174
		c4.841,0,8.545,1.418,11.112,4.254c2.567,2.837,3.851,6.847,3.851,12.029v1.54c0,0.44-0.025,0.734-0.073,0.881h-21.052
		C699.107,160.957,699.303,162.791,699.694,164.503z M709.047,146.897c-0.807-2.2-2.165-3.301-4.071-3.301
		c-1.077,0-1.98,0.367-2.714,1.101s-1.32,1.675-1.761,2.823c-0.44,1.15-0.77,2.446-0.989,3.889
		c-0.222,1.442-0.356,2.873-0.404,4.291h11.296C710.306,152.032,709.854,149.098,709.047,146.897z"/>
</g>
</svg>
